<svg width="269" height="49" viewBox="0 0 269 49" fill="none" xmlns="http://www.w3.org/2000/svg">
<path d="M24.5 0L29.3508 19.6492L49 24.5L29.3508 29.3508L24.5 49L19.6492 29.3508L0 24.5L19.6492 19.6492L24.5 0Z" fill="url(#paint0_linear_5007_287)"/>
<path d="M79.5 0L84.3508 19.6492L104 24.5L84.3508 29.3508L79.5 49L74.6492 29.3508L55 24.5L74.6492 19.6492L79.5 0Z" fill="url(#paint1_linear_5007_287)"/>
<path d="M134.5 0L139.351 19.6492L159 24.5L139.351 29.3508L134.5 49L129.649 29.3508L110 24.5L129.649 19.6492L134.5 0Z" fill="url(#paint2_linear_5007_287)"/>
<path d="M189.5 0L194.351 19.6492L214 24.5L194.351 29.3508L189.5 49L184.649 29.3508L165 24.5L184.649 19.6492L189.5 0Z" fill="url(#paint3_linear_5007_287)"/>
<path d="M244.5 0L249.351 19.6492L269 24.5L249.351 29.3508L244.5 49L239.649 29.3508L220 24.5L239.649 19.6492L244.5 0Z" fill="url(#paint4_linear_5007_287)"/>
<defs>
<linearGradient id="paint0_linear_5007_287" x1="0" y1="24.5" x2="49" y2="24.5" gradientUnits="userSpaceOnUse">
<stop stop-color="#FF6600"/>
<stop offset="0.274" stop-color="#F26659"/>
<stop offset="0.374" stop-color="#F06177"/>
<stop offset="0.484" stop-color="#E65D97"/>
<stop offset="0.714" stop-color="#CA46D2"/>
<stop offset="1" stop-color="#8D13F9"/>
</linearGradient>
<linearGradient id="paint1_linear_5007_287" x1="55" y1="24.5" x2="104" y2="24.5" gradientUnits="userSpaceOnUse">
<stop stop-color="#FF6600"/>
<stop offset="0.274" stop-color="#F26659"/>
<stop offset="0.374" stop-color="#F06177"/>
<stop offset="0.484" stop-color="#E65D97"/>
<stop offset="0.714" stop-color="#CA46D2"/>
<stop offset="1" stop-color="#8D13F9"/>
</linearGradient>
<linearGradient id="paint2_linear_5007_287" x1="110" y1="24.5" x2="159" y2="24.5" gradientUnits="userSpaceOnUse">
<stop stop-color="#FF6600"/>
<stop offset="0.274" stop-color="#F26659"/>
<stop offset="0.374" stop-color="#F06177"/>
<stop offset="0.484" stop-color="#E65D97"/>
<stop offset="0.714" stop-color="#CA46D2"/>
<stop offset="1" stop-color="#8D13F9"/>
</linearGradient>
<linearGradient id="paint3_linear_5007_287" x1="165" y1="24.5" x2="214" y2="24.5" gradientUnits="userSpaceOnUse">
<stop stop-color="#FF6600"/>
<stop offset="0.274" stop-color="#F26659"/>
<stop offset="0.374" stop-color="#F06177"/>
<stop offset="0.484" stop-color="#E65D97"/>
<stop offset="0.714" stop-color="#CA46D2"/>
<stop offset="1" stop-color="#8D13F9"/>
</linearGradient>
<linearGradient id="paint4_linear_5007_287" x1="220" y1="24.5" x2="269" y2="24.5" gradientUnits="userSpaceOnUse">
<stop stop-color="#FF6600"/>
<stop offset="0.274" stop-color="#F26659"/>
<stop offset="0.374" stop-color="#F06177"/>
<stop offset="0.484" stop-color="#E65D97"/>
<stop offset="0.714" stop-color="#CA46D2"/>
<stop offset="1" stop-color="#8D13F9"/>
</linearGradient>
</defs>
</svg>
